<svg width="320" height="347" viewBox="0 0 320 347" fill="none" xmlns="http://www.w3.org/2000/svg">
<g filter="url(#filter0_d_1_33)">
<mask id="path-1-inside-1_1_33" fill="white">
<path fill-rule="evenodd" clip-rule="evenodd" d="M255.764 6.70044C224.855 16.7467 203.499 34.7235 188.078 57.6028C168.461 86.7086 158.882 123.267 149.799 157.931L149.697 158.319C140.351 193.99 131.407 228.062 113.871 256.298C97.7837 282.202 74.2964 303.371 35.3638 314.856C-14.4541 269.197 -3.38254 169.965 61.5149 89.8235C118.957 18.8883 199.796 -13.9084 255.764 6.70044ZM285.605 25.246C246.913 31.406 224.251 48.6649 208.809 71.5752C191.935 96.6125 183.247 128.911 173.881 164.656L173.433 166.366L173.433 166.366C164.427 200.747 154.673 237.986 135.109 269.488C118.959 295.492 96.2624 317.444 62.5745 331.671C118.585 353.284 200.241 320.532 258.133 249.042C322.45 169.616 333.9 71.441 285.605 25.246Z"/>
</mask>
<path fill-rule="evenodd" clip-rule="evenodd" d="M255.764 6.70044C224.855 16.7467 203.499 34.7235 188.078 57.6028C168.461 86.7086 158.882 123.267 149.799 157.931L149.697 158.319C140.351 193.99 131.407 228.062 113.871 256.298C97.7837 282.202 74.2964 303.371 35.3638 314.856C-14.4541 269.197 -3.38254 169.965 61.5149 89.8235C118.957 18.8883 199.796 -13.9084 255.764 6.70044ZM285.605 25.246C246.913 31.406 224.251 48.6649 208.809 71.5752C191.935 96.6125 183.247 128.911 173.881 164.656L173.433 166.366L173.433 166.366C164.427 200.747 154.673 237.986 135.109 269.488C118.959 295.492 96.2624 317.444 62.5745 331.671C118.585 353.284 200.241 320.532 258.133 249.042C322.45 169.616 333.9 71.441 285.605 25.246Z" fill="black"/>
<path d="M188.078 57.6028L167.348 43.6303L167.348 43.6303L188.078 57.6028ZM255.764 6.70044L263.492 30.4761L332.112 8.17274L264.402 -16.7596L255.764 6.70044ZM149.799 157.931L125.616 151.594L125.616 151.595L149.799 157.931ZM149.697 158.319L173.881 164.656L173.881 164.656L149.697 158.319ZM113.871 256.298L135.109 269.488L135.109 269.488L113.871 256.298ZM35.3638 314.856L18.472 333.286L28.887 342.832L42.4374 338.835L35.3638 314.856ZM61.5149 89.8235L42.0862 74.0905L42.0862 74.0905L61.5149 89.8235ZM285.605 25.246L302.886 7.1801L293.923 -1.39308L281.675 0.556949L285.605 25.246ZM208.809 71.5752L188.078 57.6027L188.078 57.6028L208.809 71.5752ZM173.881 164.656L149.697 158.319L149.697 158.321L173.881 164.656ZM173.433 166.366L149.249 160.03L149.063 160.742L148.919 161.463L173.433 166.366ZM173.433 166.366L197.617 172.701L197.804 171.99L197.948 171.269L173.433 166.366ZM135.109 269.488L156.346 282.677L156.346 282.677L135.109 269.488ZM62.5745 331.671L52.8482 308.641L-4.15932 332.716L53.5743 354.995L62.5745 331.671ZM258.133 249.042L238.704 233.309L238.704 233.309L258.133 249.042ZM208.809 71.5752C221.36 52.9539 238.298 38.6646 263.492 30.4761L248.036 -17.0752C211.411 -5.17121 185.638 16.4931 167.348 43.6303L208.809 71.5752ZM173.983 164.268C183.305 128.691 191.998 96.5179 208.809 71.5752L167.348 43.6303C144.925 76.8993 134.459 117.844 125.616 151.594L173.983 164.268ZM173.881 164.656L173.983 164.267L125.616 151.595L125.514 151.983L173.881 164.656ZM135.109 269.488C155.001 237.458 164.753 199.491 173.881 164.656L125.514 151.983C115.948 188.489 107.813 218.667 92.6336 243.108L135.109 269.488ZM42.4374 338.835C87.6768 325.489 116.024 300.218 135.109 269.488L92.6336 243.108C79.5439 264.185 60.916 281.253 28.2902 290.878L42.4374 338.835ZM52.2556 296.426C35.1281 280.728 26.1831 253.62 30.258 218.122C34.3006 182.904 51.0844 142.429 80.9435 105.556L42.0862 74.0905C7.04794 117.359 -14.1528 166.571 -19.4158 212.42C-24.6465 257.987 -14.2184 303.325 18.472 333.286L52.2556 296.426ZM80.9435 105.556C107.333 72.9676 138.668 49.7108 168.9 36.971C199.404 24.117 226.822 22.6842 247.125 30.1605L264.402 -16.7596C228.738 -29.8922 187.752 -25.2311 149.484 -9.10515C110.945 7.13498 73.1384 35.7442 42.0862 74.0905L80.9435 105.556ZM281.675 0.556949C236.102 7.81235 207.371 28.9776 188.078 57.6027L229.54 85.5476C241.13 68.3523 257.724 54.9997 289.536 49.9351L281.675 0.556949ZM188.078 57.6028C168.384 86.8239 158.804 123.566 149.697 158.319L198.065 170.993C207.691 134.256 215.485 106.401 229.54 85.5476L188.078 57.6028ZM149.697 158.321L149.249 160.03L197.617 172.701L198.065 170.992L149.697 158.321ZM148.919 161.463L148.919 161.463L197.948 171.269L197.948 171.269L148.919 161.463ZM149.249 160.031C140.065 195.091 131.106 228.547 113.871 256.298L156.346 282.677C178.24 247.425 188.789 206.404 197.617 172.701L149.249 160.031ZM113.871 256.298C100.14 278.407 81.2623 296.641 52.8482 308.641L72.3008 354.701C111.263 338.247 137.778 312.576 156.346 282.677L113.871 256.298ZM238.704 233.309C212.106 266.155 180.488 289.517 150.042 302.19C119.319 314.977 91.8138 316.157 71.5747 308.347L53.5743 354.995C89.3459 368.798 130.674 364.409 169.255 348.351C208.112 332.178 246.268 303.418 277.561 264.775L238.704 233.309ZM268.325 43.3119C284.976 59.2395 293.546 86.3863 289.279 121.682C285.048 156.686 268.293 196.77 238.704 233.309L277.561 264.775C312.29 221.888 333.419 173.172 338.918 127.683C344.381 82.4859 334.529 37.4475 302.886 7.1801L268.325 43.3119Z" fill="black" mask="url(#path-1-inside-1_1_33)"/>
</g>
<defs>
<filter id="filter0_d_1_33" x="0.292545" y="0.621346" width="319.063" height="345.622" filterUnits="userSpaceOnUse" color-interpolation-filters="sRGB">
<feFlood flood-opacity="0" result="BackgroundImageFix"/>
<feColorMatrix in="SourceAlpha" type="matrix" values="0 0 0 0 0 0 0 0 0 0 0 0 0 0 0 0 0 0 127 0" result="hardAlpha"/>
<feOffset dy="4"/>
<feGaussianBlur stdDeviation="2"/>
<feComposite in2="hardAlpha" operator="out"/>
<feColorMatrix type="matrix" values="0 0 0 0 0 0 0 0 0 0 0 0 0 0 0 0 0 0 0.25 0"/>
<feBlend mode="normal" in2="BackgroundImageFix" result="effect1_dropShadow_1_33"/>
<feBlend mode="normal" in="SourceGraphic" in2="effect1_dropShadow_1_33" result="shape"/>
</filter>
</defs>
</svg>
